<svg xmlns="http://www.w3.org/2000/svg" width="1200" height="630" viewBox="0 0 1200 630" role="img" aria-labelledby="title desc">
  <title id="title">광산구 선거일투표소 지도 공유 이미지</title>
  <desc id="desc">선거구와 동별로 투표소를 찾고 반경 100m 지도를 A4로 인쇄할 수 있음을 안내하는 인포그래픽</desc>
  <defs>
    <filter id="shadow" x="-20%" y="-20%" width="140%" height="140%">
      <feDropShadow dx="0" dy="14" stdDeviation="18" flood-color="#17302a" flood-opacity=".16"/>
    </filter>
    <linearGradient id="mapGrad" x1="0" y1="0" x2="1" y2="1">
      <stop offset="0" stop-color="#e6f5ef"/>
      <stop offset=".55" stop-color="#eef7ff"/>
      <stop offset="1" stop-color="#fff4db"/>
    </linearGradient>
  </defs>
  <rect width="1200" height="630" fill="#f6f8f5"/>
  <path d="M0 530 C160 478 270 594 430 528 C590 462 676 510 830 468 C982 427 1072 438 1200 398 L1200 630 L0 630 Z" fill="#e4efe9"/>
  <g transform="translate(70 62)">
    <rect width="1060" height="506" rx="32" fill="#fff" filter="url(#shadow)"/>
    <g transform="translate(54 48)">
      <rect x="0" y="0" width="460" height="360" rx="24" fill="url(#mapGrad)" stroke="#cfded7"/>
      <path d="M40 78 L408 38 M48 162 L430 118 M72 286 L378 236 M124 36 L104 328 M224 34 L242 330 M340 64 L320 344" stroke="#c6d8cf" stroke-width="16" stroke-linecap="round" opacity=".65"/>
      <path d="M40 78 L408 38 M48 162 L430 118 M72 286 L378 236 M124 36 L104 328 M224 34 L242 330 M340 64 L320 344" stroke="#fff" stroke-width="7" stroke-linecap="round" opacity=".92"/>
      <circle cx="248" cy="172" r="96" fill="#03c75a" opacity=".15" stroke="#12975c" stroke-width="4"/>
      <path d="M248 94 C212 94 184 122 184 157 C184 206 248 274 248 274 C248 274 312 206 312 157 C312 122 284 94 248 94 Z" fill="#1778f2"/>
      <circle cx="248" cy="156" r="28" fill="#fff"/>
      <circle cx="248" cy="156" r="12" fill="#1778f2"/>
      <rect x="64" y="306" width="322" height="42" rx="21" fill="#fff" stroke="#d7e2dc"/>
      <text x="86" y="334" font-family="-apple-system,BlinkMacSystemFont,'Apple SD Gothic Neo','Malgun Gothic',sans-serif" font-size="22" font-weight="700" fill="#0b5136">선택 투표소 반경 100m 확인</text>
    </g>
    <g transform="translate(560 62)">
      <text x="0" y="0" font-family="-apple-system,BlinkMacSystemFont,'Apple SD Gothic Neo','Malgun Gothic',sans-serif" font-size="28" font-weight="800" fill="#057a44">광산구 95곳</text>
      <text x="0" y="62" font-family="-apple-system,BlinkMacSystemFont,'Apple SD Gothic Neo','Malgun Gothic',sans-serif" font-size="58" font-weight="900" fill="#111827">선거일투표소 지도</text>
      <text x="0" y="112" font-family="-apple-system,BlinkMacSystemFont,'Apple SD Gothic Neo','Malgun Gothic',sans-serif" font-size="26" font-weight="700" fill="#3f4b45">선거구·동별로 찾고 A4로 바로 인쇄</text>
      <g transform="translate(0 126)" font-family="-apple-system,BlinkMacSystemFont,'Apple SD Gothic Neo','Malgun Gothic',sans-serif">
        <g>
          <circle cx="22" cy="22" r="22" fill="#03c75a"/><text x="22" y="31" text-anchor="middle" font-size="24" font-weight="900" fill="#fff">1</text>
          <text x="62" y="16" font-size="25" font-weight="800" fill="#111827">선거구 선택</text>
          <text x="62" y="47" font-size="19" font-weight="600" fill="#5b665f">갑·을 전체 또는 가·나·다·라·마</text>
        </g>
        <g transform="translate(0 58)">
          <circle cx="22" cy="22" r="22" fill="#1778f2"/><text x="22" y="31" text-anchor="middle" font-size="24" font-weight="900" fill="#fff">2</text>
          <text x="62" y="16" font-size="25" font-weight="800" fill="#111827">동 선택 또는 검색</text>
          <text x="62" y="47" font-size="19" font-weight="600" fill="#5b665f">동·투표소·주소를 빠르게 필터링</text>
        </g>
        <g transform="translate(0 116)">
          <circle cx="22" cy="22" r="22" fill="#f59e0b"/><text x="22" y="31" text-anchor="middle" font-size="24" font-weight="900" fill="#fff">3</text>
          <text x="62" y="16" font-size="25" font-weight="800" fill="#111827">투표소 선택</text>
          <text x="62" y="47" font-size="19" font-weight="600" fill="#5b665f">주변 100m 범위를 지도에서 확인</text>
        </g>
        <g transform="translate(0 174)">
          <circle cx="22" cy="22" r="22" fill="#334155"/><text x="22" y="31" text-anchor="middle" font-size="24" font-weight="900" fill="#fff">4</text>
          <text x="62" y="16" font-size="25" font-weight="800" fill="#111827">A4 인쇄</text>
          <text x="62" y="47" font-size="19" font-weight="600" fill="#5b665f">선택한 투표소 지도를 가로 용지로 출력</text>
        </g>
      </g>
    </g>
    <g transform="translate(54 448)">
      <rect width="952" height="46" rx="23" fill="#eff7f2" stroke="#cfe1d7"/>
      <text x="28" y="31" font-family="-apple-system,BlinkMacSystemFont,'Apple SD Gothic Neo','Malgun Gothic',sans-serif" font-size="20" font-weight="800" fill="#0b5136">공개 주소</text>
      <text x="130" y="31" font-family="-apple-system,BlinkMacSystemFont,'Apple SD Gothic Neo','Malgun Gothic',sans-serif" font-size="20" font-weight="700" fill="#1f2937">rmsummit.github.io/gwangsan-polling-map</text>
    </g>
  </g>
</svg>
